<svg width="1440" height="1340" viewBox="0 0 1440 1340" fill="none" xmlns="http://www.w3.org/2000/svg">
<g opacity="0.35">
<path d="M-305.34 627.231C-228.215 390.503 105.454 102.01 469.178 199.843C806.409 290.549 605.928 446.1 876.16 585.737C1146.39 725.374 1511.43 512.852 1755.83 690.647C1897.68 793.845 1899.98 968.968 1730.47 1110.79C1560.96 1252.61 1219.64 1361.14 674.247 1331.13C159.062 1302.79 -97.0355 1161.2 -218.738 1009.5C-340.441 857.798 -327.743 695.994 -305.34 627.231Z" stroke="url(#paint0_linear_230_1527)" stroke-width="2.10293" stroke-miterlimit="10"/>
<path d="M660.217 1309.48C187.631 1283.99 -49.0353 1154.79 -162.301 1015.53C-274.477 877.081 -264.48 729.047 -244.619 664.56C-175.949 445.218 130.417 177.533 468.11 261.66C779.918 339.336 607.128 479.794 857.297 607.109C864.438 610.718 871.643 614.079 878.911 617.206C1075.7 701.968 1318.19 613.802 1518.13 651.233C1572.4 661.395 1623.67 680.642 1669.76 714.977C1802.33 813.742 1802.53 975.979 1644.57 1106.47C1485.61 1237.49 1166.28 1336.49 660.217 1309.48Z" stroke="url(#paint1_linear_230_1527)" stroke-width="2.10293" stroke-miterlimit="10"/>
<path d="M645.927 1287.93C215.946 1265.24 -1.25746 1148.41 -106.054 1021.58C-208.67 896.362 -201.638 762.062 -183.998 701.892C-124.756 499.806 155.322 253.111 467.04 323.556C753.338 388.256 607.67 514.105 838.346 628.603C844.994 631.903 851.733 634.954 858.508 637.817C1041.36 715.258 1263.72 640.777 1445.45 678.796C1495.08 689.177 1541.91 707.611 1583.58 739.519C1706.82 833.896 1704.9 983.216 1558.46 1102.36C1410.01 1222.56 1112.65 1312 645.927 1287.93Z" stroke="url(#paint2_linear_230_1527)" stroke-width="2.10293" stroke-miterlimit="10"/>
<path d="M631.636 1266.38C244.261 1246.49 46.0357 1142.2 -49.8051 1027.62C-143.335 915.811 -138.624 795.101 -123.377 739.222C-72.9655 554.485 180.132 328.71 465.969 385.452C726.669 437.203 608.568 548.124 819.395 650.095C825.561 653.077 831.824 655.83 838.105 658.427C1007.01 728.547 1209.26 667.785 1372.78 706.356C1417.76 716.965 1460.13 734.598 1497.39 764.059C1611.27 854.087 1607.28 990.45 1472.36 1098.25C1334.41 1207.63 1059.03 1287.5 631.636 1266.38Z" stroke="url(#paint3_linear_230_1527)" stroke-width="2.10293" stroke-miterlimit="10"/>
<path d="M617.345 1244.83C272.527 1228.21 93.6749 1135.87 6.44173 1033.67C-77.6556 935.139 -75.5968 828.144 -62.7579 776.55C-21.104 609.18 204.814 404.346 464.895 447.345C699.888 486.197 609.514 582.109 800.441 671.586C806.126 674.25 811.911 676.703 817.7 679.036C972.661 741.834 1154.81 694.839 1300.1 733.915C1340.44 744.764 1378.31 761.604 1411.21 788.597C1515.68 874.324 1510.02 997.894 1386.24 1094.14C1259.21 1192.91 1005.35 1263.54 617.345 1244.83Z" stroke="url(#paint4_linear_230_1527)" stroke-width="2.10293" stroke-miterlimit="10"/>
<path d="M603.053 1223.28C300.838 1209.53 141.334 1129.54 62.6898 1039.71C-11.9511 954.461 -12.5442 861.194 -2.13599 813.88C30.8579 663.898 229.341 480.055 463.825 509.241C672.972 535.273 610.53 616.056 781.491 693.079C786.697 695.424 792.003 697.578 797.298 699.647C938.318 755.123 1100.37 721.955 1227.43 761.476C1263.13 772.581 1296.46 788.638 1325.02 813.138C1420.03 894.624 1412.45 1005.17 1300.13 1090.03C1183.67 1178.02 951.714 1239.15 603.053 1223.28Z" stroke="url(#paint5_linear_230_1527)" stroke-width="2.10293" stroke-miterlimit="10"/>
<path d="M588.763 1201.73C329.153 1190.83 189.025 1123.2 118.939 1045.76C53.7901 973.778 50.5418 894.253 58.4851 851.212C82.9471 718.641 253.673 555.897 462.754 571.14C645.887 584.49 611.627 649.946 762.538 714.575C767.267 716.6 772.091 718.456 776.893 720.261C903.969 768.415 1045.92 749.16 1154.76 789.04C1185.82 800.421 1214.56 815.703 1238.84 837.681C1324.26 915.005 1314.85 1012.43 1214.02 1085.92C1108.11 1163.12 898.087 1214.73 588.763 1201.73Z" stroke="url(#paint6_linear_230_1527)" stroke-width="2.10293" stroke-miterlimit="10"/>
<path d="M574.473 1180.18C357.474 1172.08 236.767 1116.85 175.187 1051.8C119.585 993.077 113.68 927.319 119.106 888.542C135.217 773.409 278.094 625.465 461.684 633.035C618.379 639.495 612.836 683.745 743.587 736.067C747.843 737.77 752.181 739.33 756.493 740.872C869.627 781.705 991.423 776.475 1082.09 816.602C1108.5 828.291 1132.61 842.803 1152.66 862.222C1228.32 935.487 1217.21 1019.67 1127.92 1081.81C1032.51 1148.2 844.466 1190.27 574.473 1180.18Z" stroke="url(#paint7_linear_230_1527)" stroke-width="2.10293" stroke-miterlimit="10"/>
<path d="M560.18 1158.63C385.799 1153.26 284.589 1110.47 231.433 1057.85C185.463 1012.35 176.895 960.393 179.724 925.873C187.73 828.199 301.817 708.494 460.61 694.932C591.269 683.772 614.187 717.411 724.633 757.56C728.419 758.937 732.269 760.205 736.087 761.484C835.278 794.995 936.797 803.929 1009.41 844.163C1031.14 856.202 1050.56 869.94 1066.47 886.764C1132.06 956.11 1119.51 1026.88 1041.8 1077.7C956.85 1133.25 790.852 1165.74 560.18 1158.63Z" stroke="url(#paint8_linear_230_1527)" stroke-width="2.10293" stroke-miterlimit="10"/>
<path d="M545.889 1137.08C414.134 1134.34 332.579 1104.02 287.68 1063.9C251.491 1031.55 240.245 993.467 240.344 963.203C240.606 882.992 326.125 785.721 459.539 756.827C564.148 734.172 615.717 750.849 705.682 779.053C709.004 780.095 712.358 781.08 715.684 782.094C800.931 808.284 881.911 831.529 936.736 871.724C953.696 884.157 968.401 897.115 980.29 911.303C1035.27 976.924 1021.74 1034.04 955.695 1073.58C881.109 1118.24 737.246 1141.07 545.889 1137.08Z" stroke="url(#paint9_linear_230_1527)" stroke-width="2.10293" stroke-miterlimit="10"/>
<path d="M458.469 818.725C541.333 783.736 623.977 783.839 695.282 802.707C766.587 821.576 826.553 859.21 864.064 899.287C941.029 981.518 933.933 1035.84 869.587 1069.47C805.242 1103.11 683.643 1116.05 531.601 1115.54C379.559 1115.02 307.92 1063.34 300.969 1000.54C294.015 937.727 351.753 863.783 458.469 818.725Z" stroke="url(#paint10_linear_230_1527)" stroke-width="2.10293" stroke-miterlimit="10"/>
<path d="M1629.86 100.19C1570.49 322.249 1301.2 596.506 1000.7 510.747C722.081 431.236 884.18 283.048 659.789 156.861C435.398 30.6744 139.051 234.522 -64.7555 72.3378C-183.051 -21.7985 -187.896 -185.168 -51.0119 -320.077C85.8723 -454.985 364.486 -561.433 813.108 -541.723C1236.88 -523.106 1449.7 -394.878 1552.25 -255.179C1654.81 -115.481 1647.11 35.6886 1629.86 100.19Z" stroke="url(#paint11_linear_230_1527)" stroke-width="2.10293" stroke-miterlimit="10"/>
<path d="M825.156 -521.809C1213.88 -505.17 1410.5 -388.195 1505.89 -259.968C1600.38 -132.477 1594.64 5.80266 1579.4 66.2749C1526.65 271.979 1279.41 526.385 1000.54 452.995C743.044 385.231 882.665 251.559 674.984 136.547C669.057 133.287 663.08 130.261 657.056 127.453C493.945 51.3388 296.18 137.272 131.278 105.369C86.5137 96.7082 44.0669 79.5249 5.62389 48.1838C-104.954 -41.9672 -107.836 -193.345 19.7656 -317.495C148.186 -442.152 408.903 -539.354 825.156 -521.809Z" stroke="url(#paint12_linear_230_1527)" stroke-width="2.10293" stroke-miterlimit="10"/>
<path d="M837.259 -501.917C1190.93 -487.246 1371.35 -381.517 1459.58 -264.758C1545.99 -149.471 1542.46 -24.052 1528.97 32.3583C1483.68 221.818 1257.68 456.241 1000.38 395.224C764.066 339.183 881.646 219.552 690.196 116.205C684.678 113.226 679.09 110.481 673.475 107.912C521.944 38.4184 340.488 111.278 190.528 78.5524C149.581 69.6161 110.795 53.1239 76.0254 23.9812C-26.8149 -62.2164 -27.7412 -201.573 90.5863 -314.963C210.549 -429.363 453.374 -517.31 837.259 -501.917Z" stroke="url(#paint13_linear_230_1527)" stroke-width="2.10293" stroke-miterlimit="10"/>
<path d="M849.361 -482.025C1167.98 -469.32 1332.6 -375.008 1413.26 -269.548C1491.98 -166.631 1490.13 -53.9275 1478.54 -1.55722C1440.21 171.581 1236.03 386.076 1000.23 337.454C785.158 293.108 880.338 187.824 705.407 95.8641C700.291 93.1748 695.099 90.7013 689.894 88.3724C549.94 25.4992 384.782 85.2536 249.779 51.7367C212.646 42.5179 177.54 26.706 146.425 -0.220367C51.3491 -82.5016 52.3523 -209.8 161.404 -312.428C272.911 -416.573 497.845 -495.268 849.361 -482.025Z" stroke="url(#paint14_linear_230_1527)" stroke-width="2.10293" stroke-miterlimit="10"/>
<path d="M861.465 -462.133C1145.06 -451.835 1293.56 -368.381 1366.94 -274.338C1437.69 -183.673 1437.79 -83.8064 1428.11 -35.4711C1396.68 121.329 1214.49 315.874 1000.07 279.685C806.343 246.987 878.992 156.127 720.621 75.524C715.904 73.1242 711.111 70.9233 706.315 68.8334C577.941 12.5816 429.066 59.1869 309.032 24.9227C275.707 15.4099 244.312 0.26952 216.83 -24.4202C129.552 -102.831 132.135 -218.217 232.228 -309.892C334.952 -403.981 542.353 -473.72 861.465 -462.133Z" stroke="url(#paint15_linear_230_1527)" stroke-width="2.10293" stroke-miterlimit="10"/>
<path d="M873.567 -442.24C1122.11 -433.98 1254.5 -361.752 1320.63 -279.127C1383.38 -200.709 1385.43 -113.691 1377.67 -69.386C1353.07 71.0591 1193.07 245.602 999.916 221.915C827.636 200.788 877.589 124.467 735.83 55.1828C731.513 53.0734 727.118 51.1442 722.732 49.2933C605.936 -0.338128 473.34 33.0615 368.281 -1.89343C338.761 -11.7149 311.109 -26.1936 287.229 -48.6223C207.807 -123.219 212.183 -226.478 303.045 -307.358C397.265 -391.227 586.826 -451.77 873.567 -442.24Z" stroke="url(#paint16_linear_230_1527)" stroke-width="2.10293" stroke-miterlimit="10"/>
<path d="M885.67 -422.349C1099.16 -416.098 1215.43 -355.116 1274.31 -283.918C1329.04 -217.738 1333.04 -143.584 1327.24 -103.303C1309.36 20.7669 1171.81 175.203 999.76 164.143C849.067 154.455 876.121 92.8608 751.044 34.8391C747.124 33.0212 743.13 31.3624 739.154 29.7505C633.936 -13.2595 517.626 6.85377 427.532 -28.7112C401.819 -38.8612 377.947 -52.6861 357.632 -72.8259C286.155 -143.684 292.257 -234.73 373.867 -304.826C459.601 -378.466 631.298 -429.797 885.67 -422.349Z" stroke="url(#paint17_linear_230_1527)" stroke-width="2.10293" stroke-miterlimit="10"/>
<path d="M897.771 -402.458C1076.2 -398.175 1176.31 -348.468 1227.99 -288.708C1274.66 -234.751 1280.61 -173.482 1276.8 -137.218C1265.49 -29.5455 1150.58 110.66 999.603 106.373C870.747 102.714 874.56 61.3417 766.254 14.4981C762.729 12.9739 759.138 11.5835 755.57 10.2096C661.93 -26.18 561.945 -19.4573 486.78 -55.5281C464.882 -66.0361 444.832 -79.212 428.031 -97.0287C364.642 -164.247 372.359 -242.964 444.685 -302.293C521.967 -365.686 675.765 -407.786 897.771 -402.458Z" stroke="url(#paint18_linear_230_1527)" stroke-width="2.10293" stroke-miterlimit="10"/>
<path d="M909.877 -382.566C1053.24 -380.192 1137.12 -341.792 1181.68 -293.499C1220.21 -251.735 1228.12 -203.387 1226.37 -171.135C1221.43 -79.8752 1129.69 33.5452 999.449 48.6017C892.281 60.9906 872.888 29.9495 781.468 -5.84329C778.334 -7.07068 775.15 -8.1958 771.991 -9.33072C689.931 -39.1 606.369 -45.9001 546.033 -82.3445C527.98 -93.2486 511.791 -105.774 498.435 -121.231C443.382 -184.945 452.51 -251.17 515.508 -299.76C584.38 -352.88 720.227 -385.708 909.877 -382.566Z" stroke="url(#paint19_linear_230_1527)" stroke-width="2.10293" stroke-miterlimit="10"/>
<path d="M921.98 -362.675C1030.28 -362.108 1097.8 -335.051 1135.36 -298.289C1165.64 -268.659 1175.51 -233.29 1175.94 -205.05C1177.07 -130.202 1108.43 -38.147 999.294 -9.16881C913.722 13.5524 871.071 -1.22861 796.68 -26.1851C793.933 -27.1072 791.16 -27.9755 788.411 -28.8714C717.93 -52.0193 651.004 -72.4846 605.284 -109.16C591.142 -120.505 578.842 -132.373 568.836 -145.433C522.563 -205.831 532.721 -259.328 586.328 -297.226C646.864 -340.019 764.685 -363.498 921.98 -362.675Z" stroke="url(#paint20_linear_230_1527)" stroke-width="2.10293" stroke-miterlimit="10"/>
</g>
<defs>
<linearGradient id="paint0_linear_230_1527" x1="769.013" y1="181.828" x2="764.96" y2="1335.86" gradientUnits="userSpaceOnUse">
<stop stop-color="#9296B9" stop-opacity="0.18"/>
<stop offset="0.588542" stop-color="#172FFF" stop-opacity="0.72"/>
<stop offset="0.807292" stop-color="#BEC4FC" stop-opacity="0"/>
<stop offset="1" stop-color="#E3E6FF" stop-opacity="0.61"/>
</linearGradient>
<linearGradient id="paint1_linear_230_1527" x1="753.537" y1="247.216" x2="749.9" y2="1313.71" gradientUnits="userSpaceOnUse">
<stop stop-color="#9296B9" stop-opacity="0.18"/>
<stop offset="0.588542" stop-color="#172FFF" stop-opacity="0.72"/>
<stop offset="0.807292" stop-color="#BEC4FC" stop-opacity="0"/>
<stop offset="1" stop-color="#E3E6FF" stop-opacity="0.61"/>
</linearGradient>
<linearGradient id="paint2_linear_230_1527" x1="737.972" y1="312.566" x2="734.633" y2="1291.68" gradientUnits="userSpaceOnUse">
<stop stop-color="#9296B9" stop-opacity="0.18"/>
<stop offset="0.588542" stop-color="#172FFF" stop-opacity="0.72"/>
<stop offset="0.807292" stop-color="#BEC4FC" stop-opacity="0"/>
<stop offset="1" stop-color="#E3E6FF" stop-opacity="0.61"/>
</linearGradient>
<linearGradient id="paint3_linear_230_1527" x1="722.369" y1="377.725" x2="719.327" y2="1269.64" gradientUnits="userSpaceOnUse">
<stop stop-color="#9296B9" stop-opacity="0.18"/>
<stop offset="0.588542" stop-color="#172FFF" stop-opacity="0.72"/>
<stop offset="0.807292" stop-color="#BEC4FC" stop-opacity="0"/>
<stop offset="1" stop-color="#E3E6FF" stop-opacity="0.61"/>
</linearGradient>
<linearGradient id="paint4_linear_230_1527" x1="706.831" y1="442.611" x2="704.086" y2="1247.74" gradientUnits="userSpaceOnUse">
<stop stop-color="#9296B9" stop-opacity="0.18"/>
<stop offset="0.588542" stop-color="#172FFF" stop-opacity="0.72"/>
<stop offset="0.807292" stop-color="#BEC4FC" stop-opacity="0"/>
<stop offset="1" stop-color="#E3E6FF" stop-opacity="0.61"/>
</linearGradient>
<linearGradient id="paint5_linear_230_1527" x1="691.19" y1="507.1" x2="688.739" y2="1225.73" gradientUnits="userSpaceOnUse">
<stop stop-color="#9296B9" stop-opacity="0.18"/>
<stop offset="0.588542" stop-color="#172FFF" stop-opacity="0.72"/>
<stop offset="0.807292" stop-color="#BEC4FC" stop-opacity="0"/>
<stop offset="1" stop-color="#E3E6FF" stop-opacity="0.61"/>
</linearGradient>
<linearGradient id="paint6_linear_230_1527" x1="675.465" y1="570.96" x2="673.307" y2="1203.72" gradientUnits="userSpaceOnUse">
<stop stop-color="#9296B9" stop-opacity="0.18"/>
<stop offset="0.588542" stop-color="#172FFF" stop-opacity="0.72"/>
<stop offset="0.807292" stop-color="#BEC4FC" stop-opacity="0"/>
<stop offset="1" stop-color="#E3E6FF" stop-opacity="0.61"/>
</linearGradient>
<linearGradient id="paint7_linear_230_1527" x1="659.605" y1="633.475" x2="657.735" y2="1181.7" gradientUnits="userSpaceOnUse">
<stop stop-color="#9296B9" stop-opacity="0.18"/>
<stop offset="0.588542" stop-color="#172FFF" stop-opacity="0.72"/>
<stop offset="0.807292" stop-color="#BEC4FC" stop-opacity="0"/>
<stop offset="1" stop-color="#E3E6FF" stop-opacity="0.61"/>
</linearGradient>
<linearGradient id="paint8_linear_230_1527" x1="643.504" y1="693.229" x2="641.914" y2="1159.68" gradientUnits="userSpaceOnUse">
<stop stop-color="#9296B9" stop-opacity="0.18"/>
<stop offset="0.588542" stop-color="#172FFF" stop-opacity="0.72"/>
<stop offset="0.807292" stop-color="#BEC4FC" stop-opacity="0"/>
<stop offset="1" stop-color="#E3E6FF" stop-opacity="0.61"/>
</linearGradient>
<linearGradient id="paint9_linear_230_1527" x1="626.982" y1="746.515" x2="625.648" y2="1137.67" gradientUnits="userSpaceOnUse">
<stop stop-color="#9296B9" stop-opacity="0.18"/>
<stop offset="0.588542" stop-color="#172FFF" stop-opacity="0.72"/>
<stop offset="0.807292" stop-color="#BEC4FC" stop-opacity="0"/>
<stop offset="1" stop-color="#E3E6FF" stop-opacity="0.61"/>
</linearGradient>
<linearGradient id="paint10_linear_230_1527" x1="609.719" y1="790.106" x2="608.608" y2="1115.8" gradientUnits="userSpaceOnUse">
<stop stop-color="#9296B9" stop-opacity="0.18"/>
<stop offset="0.588542" stop-color="#172FFF" stop-opacity="0.72"/>
<stop offset="0.807292" stop-color="#BEC4FC" stop-opacity="0"/>
<stop offset="1" stop-color="#E3E6FF" stop-opacity="0.61"/>
</linearGradient>
<linearGradient id="paint11_linear_230_1527" x1="754.642" y1="532.113" x2="739.023" y2="-544.767" gradientUnits="userSpaceOnUse">
<stop stop-color="#B7C0C9" stop-opacity="0.28"/>
<stop offset="0.442708" stop-color="#5994CD" stop-opacity="0.97"/>
<stop offset="1" stop-color="#2191FF"/>
</linearGradient>
<linearGradient id="paint12_linear_230_1527" x1="766.262" y1="470.788" x2="751.799" y2="-524.406" gradientUnits="userSpaceOnUse">
<stop stop-color="#B7C0C9" stop-opacity="0.28"/>
<stop offset="0.442708" stop-color="#5994CD" stop-opacity="0.97"/>
<stop offset="1" stop-color="#2191FF"/>
</linearGradient>
<linearGradient id="paint13_linear_230_1527" x1="777.957" y1="409.576" x2="764.68" y2="-504.073" gradientUnits="userSpaceOnUse">
<stop stop-color="#B7C0C9" stop-opacity="0.28"/>
<stop offset="0.442708" stop-color="#5994CD" stop-opacity="0.97"/>
<stop offset="1" stop-color="#2191FF"/>
</linearGradient>
<linearGradient id="paint14_linear_230_1527" x1="789.687" y1="348.541" x2="777.592" y2="-483.742" gradientUnits="userSpaceOnUse">
<stop stop-color="#B7C0C9" stop-opacity="0.28"/>
<stop offset="0.442708" stop-color="#5994CD" stop-opacity="0.97"/>
<stop offset="1" stop-color="#2191FF"/>
</linearGradient>
<linearGradient id="paint15_linear_230_1527" x1="801.367" y1="287.761" x2="790.449" y2="-463.537" gradientUnits="userSpaceOnUse">
<stop stop-color="#B7C0C9" stop-opacity="0.28"/>
<stop offset="0.442708" stop-color="#5994CD" stop-opacity="0.97"/>
<stop offset="1" stop-color="#2191FF"/>
</linearGradient>
<linearGradient id="paint16_linear_230_1527" x1="813.138" y1="227.351" x2="803.393" y2="-443.232" gradientUnits="userSpaceOnUse">
<stop stop-color="#B7C0C9" stop-opacity="0.28"/>
<stop offset="0.442708" stop-color="#5994CD" stop-opacity="0.97"/>
<stop offset="1" stop-color="#2191FF"/>
</linearGradient>
<linearGradient id="paint17_linear_230_1527" x1="824.991" y1="167.527" x2="816.41" y2="-422.926" gradientUnits="userSpaceOnUse">
<stop stop-color="#B7C0C9" stop-opacity="0.28"/>
<stop offset="0.442708" stop-color="#5994CD" stop-opacity="0.97"/>
<stop offset="1" stop-color="#2191FF"/>
</linearGradient>
<linearGradient id="paint18_linear_230_1527" x1="836.975" y1="108.955" x2="829.541" y2="-402.618" gradientUnits="userSpaceOnUse">
<stop stop-color="#B7C0C9" stop-opacity="0.28"/>
<stop offset="0.442708" stop-color="#5994CD" stop-opacity="0.97"/>
<stop offset="1" stop-color="#2191FF"/>
</linearGradient>
<linearGradient id="paint19_linear_230_1527" x1="849.204" y1="52.9568" x2="842.878" y2="-382.311" gradientUnits="userSpaceOnUse">
<stop stop-color="#B7C0C9" stop-opacity="0.28"/>
<stop offset="0.442708" stop-color="#5994CD" stop-opacity="0.97"/>
<stop offset="1" stop-color="#2191FF"/>
</linearGradient>
<linearGradient id="paint20_linear_230_1527" x1="861.888" y1="2.98574" x2="856.584" y2="-362.017" gradientUnits="userSpaceOnUse">
<stop stop-color="#B7C0C9" stop-opacity="0.28"/>
<stop offset="0.442708" stop-color="#5994CD" stop-opacity="0.97"/>
<stop offset="1" stop-color="#2191FF"/>
</linearGradient>
</defs>
</svg>
