<svg width="1440" height="207" viewBox="0 0 1440 207" fill="none" xmlns="http://www.w3.org/2000/svg">
<g clip-path="url(#clip0_622_3877)">
<rect width="1440" height="207" fill="#D3EDFF"/>
<path d="M1393.02 553.4C1241.47 621.545 1012.34 638.42 1001.63 501.042C991.703 373.67 1119.06 370.251 1149.92 242.89C1180.79 115.529 989.891 95.0405 1047.67 -39.6042C1081.21 -117.756 1182.32 -184.553 1295.97 -191.336C1409.63 -198.119 1535.83 -144.888 1619.54 17.0188C1698.62 169.958 1664 294.157 1598.61 385.069C1533.21 475.981 1437.04 533.606 1393.02 553.4Z" stroke="#4CA5FD" stroke-width="2.10293" stroke-miterlimit="10"/>
<path d="M1609.73 29.1204C1682.53 169.24 1651.47 283.391 1591.71 367.267C1532.21 450.539 1444.52 503.695 1403.44 522.569C1263.53 586.46 1051.53 602.977 1037.73 477.956C1024.98 362.519 1138.45 357.175 1165.92 240.008C1166.69 236.673 1167.3 233.414 1167.77 230.226C1180.45 143.871 1084.38 110.217 1069.04 40.8722C1064.87 22.0476 1066.53 0.621277 1077.9 -25.0742C1110.6 -98.9855 1204.64 -160.322 1309.58 -165.997C1415.02 -171.594 1531.6 -120.814 1609.73 29.1204Z" stroke="#4CA5FD" stroke-width="2.10293" stroke-miterlimit="10"/>
<path d="M1599.88 41.2061C1666.4 168.504 1638.91 272.609 1584.79 349.453C1531.19 425.085 1452.02 473.872 1413.86 491.729C1285.69 551.704 1090.74 567.552 1073.82 454.872C1058.28 351.38 1158.25 344.065 1181.89 237.122C1182.57 234.04 1183.1 231.027 1183.5 228.074C1194.52 148.335 1110.12 115.07 1098.49 50.5277C1095.31 32.9041 1097.32 13.0104 1108.1 -10.5473C1139.99 -80.2253 1226.93 -136.099 1323.16 -140.669C1420.37 -145.08 1527.34 -96.7552 1599.88 41.2061Z" stroke="#4CA5FD" stroke-width="2.10293" stroke-miterlimit="10"/>
<path d="M1590.03 53.2922C1650.28 167.769 1626.55 261.896 1577.87 331.638C1530.37 399.699 1459.5 443.993 1424.27 460.89C1307.8 516.75 1129.98 532.146 1109.91 431.788C1091.6 340.255 1177.81 330.968 1197.87 234.237C1198.45 231.408 1198.89 228.639 1199.23 225.923C1208.59 152.799 1135.88 119.906 1127.94 60.1841C1125.75 43.7577 1128.13 25.3989 1138.3 3.98005C1169.4 -61.4706 1249.22 -111.874 1336.73 -115.339C1425.72 -118.566 1523.07 -72.6964 1590.03 53.2922Z" stroke="#4CA5FD" stroke-width="2.10293" stroke-miterlimit="10"/>
<path d="M1580.18 65.3777C1634.44 166.869 1614.05 251.132 1570.95 313.823C1529.4 374.261 1466.98 414.108 1434.68 430.051C1329.91 481.769 1169.26 496.76 1146 408.704C1124.98 329.143 1197.34 317.868 1213.84 231.352C1214.33 228.775 1214.68 226.252 1214.96 223.772C1222.66 157.264 1161.65 124.72 1157.39 69.841C1156.2 54.6051 1158.95 37.7883 1168.5 18.5083C1198.85 -42.7213 1271.56 -87.8336 1350.3 -90.0087C1431.12 -92.2424 1519.12 -48.8235 1580.18 65.3777Z" stroke="#4CA5FD" stroke-width="2.10293" stroke-miterlimit="10"/>
<path d="M1570.33 77.4637C1618.37 166.106 1601.54 240.364 1564.03 296.008C1528.43 348.82 1474.46 384.213 1445.09 399.211C1352.01 446.753 1208.62 461.39 1182.09 385.62C1158.42 318.037 1216.84 304.765 1229.82 228.465C1230.21 226.142 1230.48 223.863 1230.7 221.62C1236.73 161.726 1187.47 129.508 1186.84 79.4963C1186.66 65.4441 1189.79 50.1763 1198.71 33.035C1228.35 -23.9767 1293.86 -63.6389 1363.88 -64.6801C1436.49 -65.7602 1514.92 -24.8011 1570.33 77.4637Z" stroke="#4CA5FD" stroke-width="2.10293" stroke-miterlimit="10"/>
<path d="M1560.49 89.5505C1602.27 165.354 1589.03 229.591 1557.11 278.194C1527.45 323.372 1481.93 354.308 1455.5 368.372C1374.1 411.693 1248.09 426.025 1218.18 362.536C1191.98 306.927 1236.29 291.662 1245.79 225.58C1246.09 223.51 1246.27 221.477 1246.43 219.469C1250.8 166.191 1213.33 134.269 1216.29 89.153C1217.13 76.2768 1220.66 62.5679 1228.91 47.563C1257.92 -5.22994 1316.15 -39.4301 1377.45 -39.3496C1441.85 -39.2658 1510.7 -0.76906 1560.49 89.5505Z" stroke="#4CA5FD" stroke-width="2.10293" stroke-miterlimit="10"/>
<path d="M1550.64 101.636C1586.15 164.616 1576.5 218.807 1550.19 260.379C1526.44 297.915 1489.41 324.384 1465.92 337.533C1396.17 376.573 1283.9 393.004 1254.27 339.452C1228.97 293.745 1255.66 278.561 1261.77 222.694C1261.97 220.876 1262.07 219.089 1262.16 217.316C1264.88 170.654 1239.27 138.999 1245.74 98.8077C1247.62 87.0991 1251.57 74.9611 1259.11 62.0892C1287.58 13.5247 1338.45 -15.206 1391.03 -14.0211C1447.21 -12.7548 1506.45 23.2754 1550.64 101.636Z" stroke="#4CA5FD" stroke-width="2.10293" stroke-miterlimit="10"/>
<path d="M1540.79 113.722C1569.99 163.901 1563.94 208.011 1543.28 242.564C1525.41 272.446 1496.87 294.436 1476.33 306.694C1418.21 341.377 1327.65 355.091 1290.36 316.368C1259.67 284.506 1274.93 265.472 1277.74 219.809C1277.84 218.244 1277.86 216.702 1277.9 215.165C1278.95 175.118 1265.31 143.712 1275.19 108.464C1278.14 97.9179 1282.51 87.3654 1289.31 76.6171C1317.37 32.312 1360.73 9.0457 1404.6 11.3084C1452.56 13.7824 1502.16 47.3447 1540.79 113.722Z" stroke="#4CA5FD" stroke-width="2.10293" stroke-miterlimit="10"/>
<path d="M1530.94 125.808C1553.77 163.224 1551.3 197.196 1536.36 224.75C1524.31 246.959 1504.31 264.45 1486.74 275.854C1440.18 306.08 1367.93 319.208 1326.45 293.284C1293.92 272.957 1294.04 252.418 1293.72 216.924C1293.71 215.613 1293.66 214.314 1293.63 213.013C1293.02 179.582 1291.49 148.441 1304.64 118.121C1308.7 108.741 1313.49 99.7863 1319.52 91.1443C1347.38 51.1762 1383 33.3373 1418.18 36.6379C1457.89 40.3659 1497.79 71.4655 1530.94 125.808Z" stroke="#4CA5FD" stroke-width="2.10293" stroke-miterlimit="10"/>
<path d="M1362.54 270.2C1326.89 260.536 1311.64 237.678 1309.36 210.862C1307.09 184.046 1317.8 153.272 1334.09 127.777C1367.51 75.4642 1400.32 56.9045 1431.75 61.9674C1463.18 67.0302 1493.22 95.7157 1521.1 137.893C1548.97 180.071 1532.29 219.371 1497.15 245.014C1462.02 270.659 1408.44 282.647 1362.54 270.2Z" stroke="#4CA5FD" stroke-width="2.10293" stroke-miterlimit="10"/>
</g>
<defs>
<clipPath id="clip0_622_3877">
<rect width="1440" height="207" fill="white"/>
</clipPath>
</defs>
</svg>
