<svg width="113" height="99" viewBox="0 0 113 99" fill="none" xmlns="http://www.w3.org/2000/svg">
<path d="M59.2166 24.1328L59.309 24.1604L59.3116 24.1574C60.0003 24.3104 60.696 23.9051 60.8982 23.222C62.8352 16.7136 68.9368 12.1676 75.7355 12.1676C76.4821 12.1676 77.0876 11.562 77.0876 10.8154C77.0876 10.0688 76.4821 9.46328 75.7355 9.46328C67.4763 9.46328 60.5355 14.9623 58.3068 22.4513C58.0933 23.1671 58.5011 23.9194 59.2166 24.1328Z" fill="#0017EB" stroke="#F9FFF9" stroke-width="0.3"/>
<path d="M92.5643 69.72H85.3517C84.6879 69.72 84.1495 69.1816 84.1495 68.5178C84.1495 67.8541 84.6879 67.3157 85.3517 67.3157H92.5643C102.507 67.3157 110.596 59.2262 110.596 49.2838C110.596 39.3415 102.507 31.252 92.5643 31.252H92.3909C92.0423 31.252 91.7108 31.1009 91.4824 30.8373C91.254 30.5737 91.151 30.2242 91.2008 29.879C91.3081 29.1303 91.3622 28.3781 91.3622 27.6457C91.3622 19.029 84.3511 12.018 75.7345 12.018C72.3823 12.018 69.1855 13.0655 66.4892 15.0481C65.8967 15.4835 65.0553 15.2903 64.7127 14.6386C57.0766 0.098077 37.1322 -1.85456 26.792 10.7944C22.4361 16.1232 20.7246 23.0551 22.096 29.8112C22.2471 30.5574 21.6761 31.2529 20.9179 31.2529H20.4362C10.4939 31.2529 2.40436 39.3424 2.40436 49.2848C2.40436 59.2271 10.4939 67.3166 20.4362 67.3166H27.6489C28.3126 67.3166 28.851 67.855 28.851 68.5187C28.851 69.1825 28.3126 69.7209 27.6489 69.7209H20.4362C9.16793 69.7209 0 60.553 0 49.2847C0 38.3325 8.66037 29.3646 19.4925 28.87C18.475 21.8607 20.4208 14.7905 24.9304 9.27286C36.001 -4.27075 57.2171 -2.75269 66.1857 12.3494C69.0468 10.5557 72.3208 9.61468 75.7341 9.61468C86.1737 9.61468 94.4461 18.5001 93.7222 28.8812C104.455 29.4832 113 38.4037 113 49.2838C113 60.553 103.832 69.72 92.5638 69.72L92.5643 69.72Z" fill="#0017EB"/>
<path d="M26.1356 67.8386C26.1356 84.493 39.6849 98.042 56.3391 98.042C72.9935 98.042 86.5425 84.4928 86.5425 67.8386C86.5425 51.1842 72.9935 37.6352 56.3391 37.6352C39.6846 37.6352 26.1356 51.1844 26.1356 67.8386ZM28.8404 67.8386C28.8404 52.6762 41.1765 40.34 56.3391 40.34C71.5015 40.34 83.8377 52.676 83.8377 67.8386C83.8377 83.001 71.5015 95.3372 56.3391 95.3372C41.1767 95.3372 28.8404 83.0012 28.8404 67.8386Z" fill="#0017EB" stroke="#F9FFF9" stroke-width="0.3"/>
<path d="M55.8583 79.9365C55.8583 80.5053 56.3196 80.9666 56.8884 80.9666C57.4571 80.9666 57.9185 80.506 57.9185 79.9365V57.0539C57.9185 56.4851 57.4572 56.0238 56.8884 56.0238C56.3196 56.0238 55.8583 56.4852 55.8583 57.0539V79.9365Z" fill="#0017EB" stroke="#483EA8" stroke-width="0.3"/>
<path d="M56.8882 58.5128L50.576 64.825C50.1742 65.2276 49.5215 65.2275 49.1191 64.8251C48.7167 64.4227 48.7167 63.7707 49.1191 63.3683L56.1597 56.3277C56.1597 56.3277 56.1597 56.3277 56.1597 56.3276C56.5616 55.9251 57.2142 55.9252 57.6166 56.3276L64.6573 63.3683C65.0596 63.7706 65.0597 64.4225 64.6575 64.8249C64.4564 65.0268 64.1919 65.1268 63.9289 65.1268L56.8882 58.5128ZM56.8882 58.5128L63.2005 64.8251C63.4014 65.026 63.6657 65.1268 63.9289 65.1268L56.8882 58.5128Z" fill="#0017EB" stroke="#483EA8" stroke-width="0.3"/>
</svg>
