<svg width="53" height="54" viewBox="0 0 53 54" fill="none" xmlns="http://www.w3.org/2000/svg">
<mask id="mask0_224_1457" style="mask-type:alpha" maskUnits="userSpaceOnUse" x="2" y="7" width="49" height="41">
<path d="M25.4265 44.2666H7.90204C7.03058 44.2666 6.19482 43.9204 5.57861 43.3042C4.9624 42.688 4.61621 41.8523 4.61621 40.9808V12.5036C4.61621 11.6321 4.9624 10.7964 5.57861 10.1802C6.19482 9.56396 7.03058 9.21777 7.90204 9.21777H45.1414C46.0129 9.21777 46.8487 9.56396 47.4649 10.1802C48.0811 10.7964 48.4273 11.6321 48.4273 12.5036V28.8035" stroke="white" stroke-width="4.38111" stroke-linecap="round" stroke-linejoin="round"/>
<path d="M4.61621 12.5036C4.61621 11.6321 4.9624 10.7964 5.57861 10.1802C6.19482 9.56396 7.03058 9.21777 7.90204 9.21777H45.1414C46.0129 9.21777 46.8487 9.56396 47.4649 10.1802C48.0811 10.7964 48.4273 11.6321 48.4273 12.5036V22.3611H4.61621V12.5036Z" fill="white" stroke="white" stroke-width="4.38111"/>
<path d="M44.0465 36.5996L48.4276 40.9807L44.0465 45.3618M37.4749 36.5996L33.0938 40.9807L37.4749 45.3618V36.5996Z" stroke="white" stroke-width="4.38111" stroke-linecap="round" stroke-linejoin="round"/>
<path d="M8.99682 15.7894C8.99682 14.5796 9.97757 13.5989 11.1874 13.5989C12.3972 13.5989 13.3779 14.5796 13.3779 15.7894C13.3779 16.9992 12.3972 17.98 11.1874 17.98C9.97757 17.98 8.99682 16.9992 8.99682 15.7894Z" fill="black"/>
<path d="M15.5691 15.7894C15.5691 14.5796 16.5498 13.5989 17.7596 13.5989C18.9695 13.5989 19.9502 14.5796 19.9502 15.7894C19.9502 16.9992 18.9695 17.98 17.7596 17.98C16.5498 17.98 15.5691 16.9992 15.5691 15.7894Z" fill="black"/>
</mask>
<g mask="url(#mask0_224_1457)">
<path d="M0.235352 0.455566H52.8086V53.0288H0.235352V0.455566Z" fill="#0017EB"/>
</g>
</svg>
