<svg width="60" height="54" viewBox="0 0 60 54" fill="none" xmlns="http://www.w3.org/2000/svg">
<g filter="url(#filter0_d_224_1451)">
<path d="M58.9124 34.9876C57.5652 33.1588 54.9961 32.7635 53.1694 34.118L40.8783 43.1715H28.4948C27.5966 43.1715 26.9443 42.427 26.9443 41.5296C26.9443 40.6311 27.6888 39.8867 28.4948 39.8867H36.5297C38.0802 39.8867 39.6872 38.7695 39.9562 37.1533C40.2899 35.0996 38.7117 33.315 36.7094 33.315H20.1909C17.5109 33.315 14.7364 34.2648 12.5801 36.0104L7.8054 39.8856L2.11886 39.7931C1.31291 39.7931 0.568359 40.6351 0.568359 41.5284V51.3839C0.568359 52.2895 1.31291 53.0288 2.11886 53.0288H37.6572C39.9193 53.0288 42.167 52.2908 43.9927 50.9475L57.865 40.7285C59.8673 39.3824 60.2575 36.8153 58.9124 34.9876ZM29.2475 18.4249C28.4671 18.312 27.4403 17.9423 26.5367 17.6138L26.0335 17.4392C24.75 16.895 23.3433 17.6548 22.8915 18.8459C22.4397 20.0371 23.1093 21.5362 24.3896 21.9921L24.8676 22.1622C25.7389 22.4765 26.7035 22.788 27.6801 23.0157V24.2778C27.6801 25.6384 28.7818 26.7422 30.1424 26.7422C31.5029 26.7422 32.6067 25.6384 32.6067 24.2778V23.2099C35.2015 22.6223 37.0098 20.9663 37.3404 18.5153C38.2325 13.3761 33.3471 11.9786 30.7256 11.23L30.1819 11.0421C27.4814 10.2761 27.6354 9.94545 27.7073 9.52343C27.826 8.82868 29.2783 8.49045 31.0147 8.76451C31.5217 8.8447 32.1822 9.02604 33.0324 9.32125C34.319 9.76083 35.7237 9.08385 36.1662 7.79745C36.6088 6.51104 35.9291 5.1082 34.6424 4.66256C33.8618 4.39281 33.2131 4.21507 32.6073 4.07511V2.91994C32.6073 1.5594 31.5034 0.455566 30.1429 0.455566C28.7823 0.455566 27.6806 1.5594 27.6806 2.91994V4.00016C25.0889 4.58647 23.2714 6.23144 22.758 8.68349C21.9673 13.7632 26.9269 15.2213 28.7957 15.7757L29.4629 15.9683C32.7138 16.8988 32.6615 17.1892 32.5783 17.6769C32.4614 18.3736 31.0136 18.7125 29.2475 18.4249Z" fill="#0017EB"/>
</g>
<defs>
<filter id="filter0_d_224_1451" x="-3.43164" y="0.455566" width="67.1338" height="60.5732" filterUnits="userSpaceOnUse" color-interpolation-filters="sRGB">
<feFlood flood-opacity="0" result="BackgroundImageFix"/>
<feColorMatrix in="SourceAlpha" type="matrix" values="0 0 0 0 0 0 0 0 0 0 0 0 0 0 0 0 0 0 127 0" result="hardAlpha"/>
<feOffset dy="4"/>
<feGaussianBlur stdDeviation="2"/>
<feComposite in2="hardAlpha" operator="out"/>
<feColorMatrix type="matrix" values="0 0 0 0 0 0 0 0 0 0 0 0 0 0 0 0 0 0 0.25 0"/>
<feBlend mode="normal" in2="BackgroundImageFix" result="effect1_dropShadow_224_1451"/>
<feBlend mode="normal" in="SourceGraphic" in2="effect1_dropShadow_224_1451" result="shape"/>
</filter>
</defs>
</svg>
