<svg width="54" height="54" viewBox="0 0 54 54" fill="none" xmlns="http://www.w3.org/2000/svg">
<path d="M21.1156 48.3722C22.9858 48.8839 24.9158 49.1447 26.8548 49.1476L27.1637 49.1455C28.2707 49.1317 29.3562 48.8383 30.3194 48.2925C31.2826 47.7468 32.0922 46.9664 32.6729 46.0239C33.8602 44.105 33.9873 41.7458 33.0081 39.7151L32.5744 38.806C31.582 36.7425 32.3619 34.8718 33.4243 33.8094C34.4867 32.747 36.3618 31.9671 38.4188 32.9595H38.421L39.3256 33.3954C40.3205 33.8764 41.4208 34.0979 42.5242 34.0393C43.6277 33.9807 44.6984 33.6439 45.6366 33.0602C46.5797 32.4799 47.3606 31.6704 47.9067 30.7072C48.4529 29.7439 48.7465 28.6582 48.7604 27.551C48.7878 25.5094 48.5274 23.4741 47.9871 21.5051C45.7133 13.1218 38.4516 6.71006 29.9238 5.54688C23.0257 4.61151 16.2526 6.86559 11.3676 11.7527C6.48268 16.6398 4.21765 23.4021 5.15959 30.3089C6.32058 38.8389 12.7345 46.0984 21.1156 48.3722ZM34.5218 14.0988C35.3932 14.0988 36.229 14.445 36.8452 15.0612C37.4614 15.6774 37.8076 16.5132 37.8076 17.3846C37.8076 18.2561 37.4614 19.0918 36.8452 19.7081C36.229 20.3243 35.3932 20.6705 34.5218 20.6705C33.6503 20.6705 32.8145 20.3243 32.1983 19.7081C31.5821 19.0918 31.2359 18.2561 31.2359 17.3846C31.2359 16.5132 31.5821 15.6774 32.1983 15.0612C32.8145 14.445 33.6503 14.0988 34.5218 14.0988ZM23.569 11.9082C24.4405 11.9082 25.2762 12.2544 25.8924 12.8706C26.5086 13.4869 26.8548 14.3226 26.8548 15.1941C26.8548 16.0655 26.5086 16.9013 25.8924 17.5175C25.2762 18.1337 24.4405 18.4799 23.569 18.4799C22.6975 18.4799 21.8618 18.1337 21.2456 17.5175C20.6294 16.9013 20.2832 16.0655 20.2832 15.1941C20.2832 14.3226 20.6294 13.4869 21.2456 12.8706C21.8618 12.2544 22.6975 11.9082 23.569 11.9082ZM20.2832 34.9222C20.2832 35.7937 19.937 36.6294 19.3208 37.2456C18.7046 37.8618 17.8688 38.208 16.9973 38.208C16.1259 38.208 15.2901 37.8618 14.6739 37.2456C14.0577 36.6294 13.7115 35.7937 13.7115 34.9222C13.7115 34.0507 14.0577 33.215 14.6739 32.5988C15.2901 31.9826 16.1259 31.6364 16.9973 31.6364C17.8688 31.6364 18.7046 31.9826 19.3208 32.5988C19.937 33.215 20.2832 34.0507 20.2832 34.9222ZM14.8068 20.6836C15.6785 20.6839 16.5145 21.0305 17.1307 21.6471C17.7469 22.2637 18.0929 23.0999 18.0926 23.9716C18.0923 24.8434 17.7457 25.6793 17.1291 26.2955C16.5125 26.9117 15.6763 27.2577 14.8046 27.2575C13.9328 27.2572 13.0969 26.9106 12.4807 26.294C11.8645 25.6773 11.5185 24.8412 11.5188 23.9694C11.5191 23.0977 11.8656 22.2618 12.4823 21.6455C13.0989 21.0293 13.935 20.6833 14.8068 20.6836Z" fill="#0017EB"/>
</svg>
