<svg width="53" height="54" viewBox="0 0 53 54" fill="none" xmlns="http://www.w3.org/2000/svg">
<g clip-path="url(#clip0_224_1501)">
<path d="M13.725 20.6704H44.0459V15.7416C44.0459 13.0205 42.0836 10.8129 39.6648 10.8129H25.0611L19.2197 4.24121H4.61597C2.19632 4.24121 0.234863 6.44785 0.234863 9.16996V42.8908L8.49872 24.295C9.48995 22.0668 11.498 20.6704 13.725 20.6704ZM49.8053 23.9562H13.725C12.6206 23.9562 11.6075 24.6544 11.1146 25.7737L0.234863 50.2428H41.043C42.1493 50.2428 43.1606 49.5393 43.6553 48.4264L52.4175 28.7114C53.4653 26.5232 52.0506 23.9562 49.8053 23.9562Z" fill="#0017EB"/>
</g>
<defs>
<clipPath id="clip0_224_1501">
<rect width="52.5733" height="52.5733" fill="white" transform="translate(0.234863 0.955566)"/>
</clipPath>
</defs>
</svg>
