<svg width="54" height="44" viewBox="0 0 54 44" fill="none" xmlns="http://www.w3.org/2000/svg">
<g clip-path="url(#clip0_224_1508)">
<path d="M28.3878 18.8257L25.9235 21.0854C22.5883 24.1441 18.7932 22.0644 17.5692 20.7328C15.3595 18.3161 15.532 14.576 17.9307 12.3731L24.6502 6.21631H24.108C19.36 6.21631 14.7927 8.10279 11.4329 11.4606L3.53052 11.4853C2.08475 11.4853 0.901855 12.6682 0.901855 14.1141V27.2496C0.901855 28.6954 2.08475 29.8832 3.45659 29.8832L12.8458 29.8783L20.28 36.6038C22.539 38.4426 25.8454 38.0925 27.6732 35.8431L29.1616 37.0966C30.4661 38.0912 32.3965 37.9597 33.4644 36.6553L36.0422 33.4824L36.4836 33.8521C37.6131 34.7563 39.2667 34.5921 40.1802 33.4618L40.9668 32.4894C41.877 31.3633 41.7044 29.7152 40.5806 28.8019L28.3878 18.8257ZM50.8465 11.4853L42.9605 11.475C39.5941 8.10808 35.0285 6.22406 30.269 6.22406L29.5625 6.21631C28.9053 6.21631 28.2794 6.4791 27.7865 6.9206L19.7132 14.2965C19.705 14.313 19.6968 14.3294 19.6968 14.3294C18.3168 15.6282 18.3496 17.6667 19.5161 18.9326C20.3067 19.7957 22.3912 20.7097 24.1269 19.1586C24.1269 19.1484 24.1475 19.1484 24.1577 19.1381L30.7294 13.1293C31.2633 12.6467 32.0947 12.6775 32.5875 13.2115C33.0804 13.7455 33.0393 14.5777 32.5054 15.0709L30.3597 17.033L42.3202 26.7407C43.3158 27.5621 43.922 28.6716 44.1372 29.8627L50.8465 29.8651C52.2922 29.8651 53.4751 28.6831 53.4751 27.2364V14.1157C53.4751 12.6608 52.3005 11.4853 50.8465 11.4853Z" fill="#0017EB"/>
</g>
<defs>
<clipPath id="clip0_224_1508">
<rect width="52.5733" height="42.0862" fill="white" transform="translate(0.901855 0.955566)"/>
</clipPath>
</defs>
</svg>
