<svg width="54" height="54" viewBox="0 0 54 54" fill="none" xmlns="http://www.w3.org/2000/svg">
<path d="M27.1884 30.8493C26.5386 30.8493 25.9033 30.6566 25.3629 30.2955C24.8226 29.9345 24.4014 29.4213 24.1527 28.8209C23.904 28.2205 23.839 27.5598 23.9658 26.9224C24.0925 26.2851 24.4055 25.6996 24.865 25.24C25.3245 24.7805 25.91 24.4676 26.5474 24.3408C27.1848 24.214 27.8455 24.2791 28.4459 24.5278C29.0463 24.7765 29.5595 25.1976 29.9205 25.738C30.2816 26.2783 30.4743 26.9136 30.4743 27.5635C30.4743 28.4349 30.1281 29.2707 29.5119 29.8869C28.8957 30.5031 28.0599 30.8493 27.1884 30.8493ZM45.4864 29.3091L30.31 49.9071C30.2065 50.045 30.0623 50.1469 29.8978 50.1983C29.7332 50.2497 29.5566 50.2481 29.3931 50.1935C29.2295 50.139 29.0872 50.0344 28.9864 49.8946C28.8856 49.7547 28.8314 49.5867 28.8314 49.4142V33.9298C30.3801 33.5299 31.7298 32.5789 32.6275 31.2551C33.5252 29.9313 33.9093 28.3255 33.7077 26.7387C33.5062 25.152 32.7329 23.6932 31.5327 22.6358C30.3325 21.5785 28.7879 20.9951 27.1884 20.9951C25.5889 20.9951 24.0444 21.5785 22.8442 22.6358C21.644 23.6932 20.8707 25.152 20.6692 26.7387C20.4676 28.3255 20.8517 29.9313 21.7494 31.2551C22.6471 32.5789 23.9968 33.5299 25.5455 33.9298V49.4142C25.5455 49.5867 25.4913 49.7547 25.3905 49.8946C25.2897 50.0344 25.1474 50.139 24.9838 50.1935C24.8203 50.2481 24.6437 50.2497 24.4791 50.1983C24.3146 50.1469 24.1704 50.045 24.0669 49.9071L8.89048 29.3091C8.53297 28.823 8.31528 28.2484 8.26098 27.6475C8.20668 27.0466 8.31784 26.4423 8.58244 25.9L14.0451 14.8514V7.02704C14.0451 6.15558 14.3913 5.31982 15.0075 4.70361C15.6237 4.0874 16.4595 3.74121 17.331 3.74121H37.0459C37.9174 3.74121 38.7532 4.0874 39.3694 4.70361C39.9856 5.31982 40.3318 6.15558 40.3318 7.02704V14.8514L45.7945 25.9C46.0591 26.4423 46.1702 27.0466 46.1159 27.6475C46.0616 28.2484 45.8439 28.823 45.4864 29.3091ZM37.0459 7.02704H17.331V13.5987H37.0459V7.02704Z" fill="white"/>
</svg>
