<svg width="53" height="54" viewBox="0 0 53 54" fill="none" xmlns="http://www.w3.org/2000/svg">
<path d="M14.1998 7.52734C12.239 7.52734 10.3585 8.30626 8.97203 9.69274C7.58556 11.0792 6.80664 12.9597 6.80664 14.9205V32.9925C6.80664 34.9533 7.58556 36.8338 8.97203 38.2203C10.3585 39.6067 12.239 40.3856 14.1998 40.3856H35.5577C37.5184 40.3856 39.3989 39.6067 40.7854 38.2203C42.1719 36.8338 42.9508 34.9533 42.9508 32.9925V14.9205C42.9508 12.9597 42.1719 11.0792 40.7854 9.69274C39.3989 8.30626 37.5184 7.52734 35.5577 7.52734H14.1998ZM19.95 30.515V17.398C19.9497 17.1003 20.0304 16.8081 20.1833 16.5527C20.3362 16.2973 20.5557 16.0882 20.8182 15.9478C21.0807 15.8075 21.3765 15.741 21.6738 15.7557C21.9711 15.7704 22.2589 15.8656 22.5063 16.0311L32.354 22.5896C32.5797 22.7395 32.7648 22.9429 32.8928 23.1817C33.0209 23.4205 33.0879 23.6872 33.0879 23.9581C33.0879 24.2291 33.0209 24.4958 32.8928 24.7346C32.7648 24.9734 32.5797 25.1768 32.354 25.3267L22.5031 31.8852C22.2554 32.05 21.9677 32.1445 21.6706 32.1585C21.3734 32.1726 21.0781 32.1057 20.816 31.9651C20.5539 31.8244 20.3349 31.6152 20.1824 31.3598C20.0298 31.1045 19.9495 30.8125 19.95 30.515ZM19.95 46.9573C18.6745 46.9583 17.4164 46.6619 16.2756 46.0915C15.1348 45.5211 14.1428 44.6925 13.3783 43.6715H37.2006C39.5971 43.6715 41.8954 42.7195 43.59 41.0249C45.2846 39.3303 46.2366 37.0319 46.2366 34.6354V14.099C48.2311 15.5973 49.5224 17.9829 49.5224 20.6707V34.6354C49.5224 37.9034 48.2242 41.0375 45.9134 43.3483C43.6026 45.6591 40.4685 46.9573 37.2006 46.9573H19.95Z" fill="#0017EB"/>
</svg>
