<svg width="53" height="54" viewBox="0 0 53 54" fill="none" xmlns="http://www.w3.org/2000/svg">
<path d="M45.5002 8.57413L17.759 18.4798V33.8137L19.3976 34.3986L16.9288 39.3361C16.6476 39.8974 16.4904 40.5126 16.4679 41.14C16.4454 41.7674 16.558 42.3924 16.7982 42.9724C17.0383 43.5525 17.4004 44.0741 17.8599 44.502C18.3193 44.9298 18.8654 45.2538 19.4611 45.4521L28.4073 48.4334C29.4081 48.7597 30.4925 48.7176 31.4649 48.3147C32.4374 47.9119 33.2338 47.1747 33.7106 46.2363L36.5649 40.5277L45.5002 43.7194C45.8306 43.8372 46.1845 43.874 46.5321 43.8267C46.8797 43.7793 47.2108 43.6491 47.4976 43.4471C47.7844 43.2451 48.0185 42.9771 48.1802 42.6658C48.3419 42.3545 48.4265 42.0089 48.4268 41.6581V10.6354C48.4265 10.2846 48.3419 9.93903 48.1802 9.6277C48.0185 9.31637 47.7844 9.04843 47.4976 8.84642C47.2108 8.64441 46.8797 8.51424 46.5321 8.46685C46.1845 8.41947 45.8306 8.45626 45.5002 8.57413ZM29.7917 44.278L20.8477 41.2966L23.5531 35.8838L32.4073 39.0469L29.7917 44.278V44.278ZM8.99683 33.8137H13.3779V18.4798H8.99683C6.58065 18.4798 4.61572 20.4447 4.61572 22.8609V29.4326C4.61572 31.8488 6.58065 33.8137 8.99683 33.8137Z" fill="#0017EB"/>
</svg>
